<?xml version="1.0"?>
<svg xmlns="http://www.w3.org/2000/svg" height="512px" viewBox="0 0 512 512" width="512px" class=""><g transform="matrix(0.809728 0 0 0.809728 48.7096 48.7096)"><path d="m145.847656 85.453125c-1.039062-1.898437-2.835937-3.261719-4.945312-3.753906-2.105469-.492188-4.320313-.0625-6.09375 1.179687-56.433594 39.578125-90.128906 104.296875-90.128906 173.121094 0 116.523438 94.796874 211.320312 211.320312 211.320312 27.859375 0 54.957031-5.351562 80.539062-15.910156 2-.824218 3.550782-2.457031 4.269532-4.496094.71875-2.039062.539062-4.289062-.5-6.183593zm110.152344 366.65625c-108.136719 0-196.109375-87.972656-196.109375-196.109375 0-61.03125 28.546875-118.582031 76.78125-155.628906l16.902344 30.878906c-20.230469 6.480469-34.433594 25.277344-34.433594 47.464844v83.328125c0 4.199219 3.402344 7.605469 7.601563 7.605469 4.199218 0 7.605468-3.40625 7.605468-7.605469v-83.328125c0-16.433594 11.195313-30.191406 26.722656-33.769532l23.972657 43.796876h-18.558594c-4.199219 0-7.601563 3.402343-7.601563 7.601562s3.402344 7.605469 7.601563 7.605469h26.882813l15.539062 28.386719h-42.421875c-4.199219 0-7.601563 3.40625-7.601563 7.605468 0 4.199219 3.402344 7.601563 7.601563 7.601563h50.746094l15.542969 28.398437h-66.289063c-4.199219 0-7.601563 3.40625-7.601563 7.605469s3.402344 7.605469 7.601563 7.605469h74.613281l26.074219 47.640625h-24.363281c-2.113282 0-4.136719.882812-5.574219 2.433593l-48.019531 51.78125c-.199219.210938-.566406.605469-1.308594.242188-.726562-.355469-.644531-.875-.597656-1.160156l7.085937-44.5c.347657-2.199219-.28125-4.4375-1.726562-6.132813-1.445313-1.691406-3.558594-2.667969-5.785157-2.667969h-17.851562c-19.125 0-34.683594-15.554687-34.683594-34.671874v-11.660157c0-4.199219-3.40625-7.605469-7.605468-7.605469-4.199219 0-7.605469 3.40625-7.605469 7.605469v11.660157c0 27.503906 22.382812 49.878906 49.894531 49.878906h8.941406l-5.683594 35.695312c-1.140624 7.136719 2.457032 14.0625 8.953126 17.226563 2.304687 1.125 4.757812 1.671875 7.183593 1.671875 4.417969 0 8.75-1.8125 11.933594-5.238282l45.769531-49.355468h29.371094l47.304688 86.429687c-21.375 7.757813-43.808594 11.683594-66.804688 11.683594zm0 0" data-original="#000000" class="active-path" data-old_color="#000000" fill="#5E72E4"/><path d="m256 44.679688c-27.859375 0-54.960938 5.355468-80.546875 15.910156-1.996094.824218-3.550781 2.460937-4.269531 4.5-.71875 2.035156-.535156 4.285156.5 6.179687l194.464844 355.277344c1.039062 1.898437 2.835937 3.261719 4.941406 3.753906.574218.136719 1.152344.199219 1.730468.199219 1.546876 0 3.074219-.472656 4.363282-1.378906 56.433594-39.574219 90.125-104.292969 90.125-173.121094 0-116.523438-94.792969-211.320312-211.308594-211.320312zm79.453125 294.113281-26.078125-47.640625h42.414062c4.199219 0 7.605469-3.40625 7.605469-7.605469s-3.40625-7.605469-7.605469-7.605469h-50.738281l-15.542969-28.398437h66.28125c4.199219 0 7.605469-3.402344 7.605469-7.601563 0-4.199218-3.40625-7.605468-7.605469-7.605468h-74.605468l-15.539063-28.386719h11.503907c4.199218 0 7.605468-3.40625 7.605468-7.605469s-3.40625-7.601562-7.605468-7.601562h-19.828126l-24.472656-44.714844h114.121094c19.125 0 34.683594 15.5625 34.683594 34.6875v125.402344c0 19.121093-15.558594 34.675781-34.683594 34.675781zm39.867187 72.835937-31.554687-57.648437c27.140625-.429688 49.09375-22.625 49.09375-49.863281v-125.402344c0-27.511719-22.378906-49.894532-49.890625-49.894532h-122.445312l-31.335938-57.246093c21.378906-7.757813 43.8125-11.683594 66.8125-11.683594 108.128906 0 196.101562 87.972656 196.101562 196.109375 0 61.03125-28.546874 118.585938-76.78125 155.628906zm0 0" data-original="#000000" class="active-path" data-old_color="#000000" fill="#5E72E4"/><path d="m437.019531 74.980469c-48.351562-48.351563-112.640625-74.980469-181.019531-74.980469s-132.667969 26.628906-181.019531 74.980469c-48.351563 48.351562-74.980469 112.640625-74.980469 181.019531s26.628906 132.667969 74.980469 181.019531c48.351562 48.351563 112.640625 74.980469 181.019531 74.980469s132.667969-26.628906 181.019531-74.980469c48.351563-48.351562 74.980469-112.640625 74.980469-181.019531s-26.628906-132.667969-74.980469-181.019531zm-10.753906 351.285156c-45.480469 45.480469-105.949219 70.527344-170.265625 70.527344s-124.785156-25.046875-170.265625-70.527344-70.527344-105.949219-70.527344-170.265625 25.046875-124.785156 70.527344-170.265625 105.949219-70.527344 170.265625-70.527344 124.785156 25.046875 170.265625 70.527344 70.527344 105.949219 70.527344 170.265625-25.046875 124.785156-70.527344 170.265625zm0 0" data-original="#000000" class="active-path" data-old_color="#000000" fill="#5E72E4"/><path d="m351.789062 188.742188h-48.222656c-4.199218 0-7.601562 3.402343-7.601562 7.601562s3.402344 7.605469 7.601562 7.605469h48.222656c4.199219 0 7.605469-3.40625 7.605469-7.605469s-3.40625-7.601562-7.605469-7.601562zm0 0" data-original="#000000" class="active-path" data-old_color="#000000" fill="#5E72E4"/></g> </svg>
